<svg viewBox="0 0 180 161.97" xmlns="http://www.w3.org/2000/svg"><path d="m42.6 127.68c6.76 21 22.75 27.41 41.07 26.92 28-.74 47.87-27 76.21-24.16 6.47.65 14.17 2.21 19.68 7.15 4-18.07-19.51-53.14-46-52.13-14.9.57-28 9.88-41.15 15.4-11.79 5-26.82 7-36.83 15.37-5.15 4.29-6.63 10.49-13.73 11.85z" fill="#0c989c"/><path d="m34.79 35.18c-.44-.88-.91-1.79-1.42-2.8-12.75-25.1-28.95-29.55-28.95-29.55s-13 35.07 5.66 48.81c2.05-7.99 14.56-14.34 24.71-16.46z" fill="#00acb3"/><path d="m31 36.83-1-1.83c-8.43-16.68-19.18-19.64-19.18-19.64s-8.65 23.27 3.75 32.39c1.36-5.3 9.66-9.51 16.43-10.92z" fill="#078f94"/><path d="m122 35.18 1.41-2.8c12.75-25.1 29-29.55 29-29.55s13 35.07-5.65 48.81c-2.16-7.99-14.67-14.34-24.76-16.46z" fill="#00acb3"/><path d="m125.77 36.83.94-1.86c8.46-16.65 19.21-19.61 19.21-19.61s8.65 23.27-3.75 32.39c-1.37-5.3-9.67-9.51-16.4-10.92z" fill="#078f94"/><path d="m152 58.35c0 44.15-32.81 96.49-72.61 96.49s-71.51-52.34-71.51-96.49 144.12-44.14 144.12 0z" fill="#19b8bd"/><path d="m116.61 29.4a39.61 39.61 0 0 0 -76.77.92c-18.59 5.25-32 14.59-32 28 0 44.15 31.72 96.49 71.52 96.49s72.64-52.31 72.64-96.46c0-14.26-15-23.9-35.39-28.95z" fill="#19b8bd"/><path d="m78.11 38.56a86.92 86.92 0 0 1 72.08 38.44 99.74 99.74 0 0 0 1.81-18.65c0-14.26-15-23.9-35.4-28.95a39.61 39.61 0 0 0 -76.77.92c-18.59 5.25-32 14.59-32 28a101.36 101.36 0 0 0 1.17 14.56 86.82 86.82 0 0 1 69.11-34.32z" fill="#ffe398" opacity=".2"/><path d="m79.42 146.48c-26.48 0-49.69-21.11-63.88-48.52 11.74 30.84 35.79 56.88 63.86 56.88s52.81-26.2 64.83-57.17c-14.52 27.56-38.23 48.81-64.81 48.81z" fill="#21b3b8" opacity=".1"/><path d="m79.4 75.35a31 31 0 0 1 -30.95-30.95 27.27 27.27 0 0 1 .48-4.91 30.91 30.91 0 1 1 30.47 35.86z" fill="#f0d907"/><path d="m79.4 75.35a31 31 0 0 1 -30.95-30.95 27.27 27.27 0 0 1 .48-4.91 30.91 30.91 0 1 1 30.47 35.86z" fill="#01858a"/><path d="m53.83 44.4a25.58 25.58 0 1 0 25.57-25.58 25.56 25.56 0 0 0 -25.57 25.58z" fill="#fff"/><path d="m54.78 37.85a25.45 25.45 0 0 0 50 5c0 .52.16 1 .16 1.54a25.58 25.58 0 0 1 -51.15 0 25.28 25.28 0 0 1 .99-6.54z" fill="#e8e8e8"/><path d="m69.88 49.14a12.75 12.75 0 1 0 -1.08-18 12.75 12.75 0 0 0 1.08 18z"/><path d="m75.81 37.37a5.09 5.09 0 1 0 -.42-7.19 5.09 5.09 0 0 0 .42 7.19z" fill="#fff"/><path d="m78.33 79.3c-17.78 0-34.2-3.21-47.43-8.63.83 23.32 21.74 42 47.43 42s46.61-18.68 47.44-42c-13.23 5.42-29.65 8.63-47.44 8.63z" fill="#078f94"/><path d="m78.33 107.29c-23.79 0-43.53-15.81-47.42-36.57.86 23.3 21.75 42 47.42 42s46.57-18.72 47.43-42c-3.88 20.76-23.63 36.57-47.43 36.57z" fill="#47dade"/><path d="m50.37 76.52a116.05 116.05 0 0 1 -11.9-3.11 29.28 29.28 0 0 0 2.24 8.91 30.31 30.31 0 0 0 3.16 5.74s3.32-2.35 5.73-8.56a14.67 14.67 0 0 0 .77-2.98z" fill="#fff"/><path d="m84 79.19c-1.87.07-3.76.11-5.68.11s-4.1 0-6.13-.13a26.37 26.37 0 0 0 2 7.11 30.07 30.07 0 0 0 3.17 5.72s3.33-2.36 5.74-8.57a16 16 0 0 0 .9-4.24z" fill="#fff"/><path d="m66.35 81.78a15.18 15.18 0 0 0 .75-2.92c-4-.31-7.88-.78-11.65-1.4a26.15 26.15 0 0 0 2 7.13 30.07 30.07 0 0 0 3.15 5.75s3.34-2.34 5.75-8.56z" fill="#fff"/><path d="m118.23 73.41a118.08 118.08 0 0 1 -12.43 3.21 14.54 14.54 0 0 0 .82 3.18c2.51 6.2 6 8.56 6 8.56a29.93 29.93 0 0 0 3.28-5.75 29 29 0 0 0 2.33-9.2z" fill="#fff"/><path d="m95.35 90a29.74 29.74 0 0 0 3.28-5.74 25.18 25.18 0 0 0 2-6.74q-5.82.93-12 1.37a13.49 13.49 0 0 0 .72 2.55c2.55 6.25 6 8.56 6 8.56z" fill="#fff"/><path d="m61.08 142.36c-3-1.8-6.91-2.33-10.89-2.16a21.59 21.59 0 0 0 -11.56 1.63c-3.87 1.67-11.06 6.66-9 11.79a1.8 1.8 0 0 0 1.71 1.24c4.05-.05 7.39-2.29 11.3-2.52-1.71 2.7-2.59 6-.81 8.78a2.07 2.07 0 0 0 2.9.44 86.79 86.79 0 0 0 6.31-6.7c.76 2.6 2 5.2 4 6.53a2.32 2.32 0 0 0 3.46-1 22.71 22.71 0 0 0 2-5.44 9 9 0 0 0 4 2.3 2.26 2.26 0 0 0 2.14-1c2.58-4.94-1.24-11.25-5.56-13.89z" fill="#0ca4a8"/><path d="m93.71 142.36c3-1.8 6.89-2.33 10.87-2.16a21.52 21.52 0 0 1 11.54 1.63c3.86 1.67 11 6.66 9 11.79a1.8 1.8 0 0 1 -1.71 1.24c-4-.05-7.38-2.29-11.29-2.52 1.71 2.7 2.6 6 .82 8.78a2.08 2.08 0 0 1 -2.9.44 84.77 84.77 0 0 1 -6.3-6.7c-.76 2.6-2 5.2-4 6.53a2.31 2.31 0 0 1 -3.45-1 22.67 22.67 0 0 1 -2-5.44 9 9 0 0 1 -4 2.3 2.25 2.25 0 0 1 -2.13-1c-2.58-4.94 1.23-11.25 5.55-13.89z" fill="#0ca4a8"/><g fill="#0c989c"><path d="m43.38 43.61c-1.48 0-1.79 2.31-.29 2.31s1.78-2.31.29-2.31z"/><path d="m44.06 52.91a1.93 1.93 0 0 1 0 .24c0 .35.55.42.57 0 0-.07 0-.16 0-.23.04-.35-.63-.38-.57-.01z"/><path d="m36.62 51.57a1.09 1.09 0 0 0 -.95 1.22 1.12 1.12 0 0 0 1.22 1 1.1 1.1 0 0 0 1-1.23 1.12 1.12 0 0 0 -1.27-.99z"/><path d="m45.05 60.29a2.16 2.16 0 0 0 -2.35-1.85 2.11 2.11 0 0 0 -1.85 2.34 2.15 2.15 0 0 0 2.34 1.86 2.12 2.12 0 0 0 1.86-2.35z"/><path d="m49.22 63.6a1.47 1.47 0 0 0 -1.52 1.4 1.44 1.44 0 1 0 1.52-1.36z"/><path d="m45 67.34a2.14 2.14 0 0 0 -2.33-1.85 2.1 2.1 0 0 0 -1.85 2.32 2.14 2.14 0 0 0 2.33 1.85 2.11 2.11 0 0 0 1.85-2.32z"/><path d="m45 50.71a1.38 1.38 0 1 0 1.29 1.47 1.4 1.4 0 0 0 -1.29-1.47z"/><path d="m32.82 55.8a1.64 1.64 0 0 0 0 3.28 1.64 1.64 0 0 0 0-3.28z"/><path d="m52.38 69.5c-1.49 0-1.8 2.34-.28 2.34s1.8-2.34.28-2.34z"/><path d="m58.51 70c-2.66 0-2.21 4.1.42 4.1s2.2-4.1-.42-4.1z"/><path d="m95.86 75c-.94 0-.89 1.46 0 1.46s.94-1.46 0-1.46z"/><path d="m109.92 67.81a2.36 2.36 0 0 0 -2.54 2.06 2.32 2.32 0 0 0 2.06 2.54 2.36 2.36 0 0 0 2.56-2.06 2.32 2.32 0 0 0 -2.08-2.54z"/><path d="m102.18 70.07c-2.61 0-2.21 4 .36 4s2.21-4-.36-4z"/><path d="m95.94 74.23a1.53 1.53 0 0 0 -1.57 1.46 1.51 1.51 0 1 0 1.57-1.46z"/><path d="m109.48 59.38c-1.86 0-2 2.88-.16 2.88s2.02-2.88.16-2.88z"/><path d="m107.06 63.53c-1.23 0-1 1.9.17 1.9s1.05-1.9-.17-1.9z"/><path d="m116.4 62.18c-2.24 0-2.16 3.47.07 3.47s2.17-3.47-.07-3.47z"/><path d="m115.22 67.46c-1.24 0-1 1.92.18 1.92s1.06-1.92-.18-1.92z"/><path d="m106.49 73.05h.11a.94.94 0 0 0 -.45-.21 1.11 1.11 0 0 0 -.48 0h-.13a.89.89 0 0 0 -.61.62.76.76 0 0 0 .17 1.18 2.07 2.07 0 0 0 .25.15.91.91 0 0 0 1.14-.33.9.9 0 0 0 0-1.41z"/><path d="m116.4 55a2.08 2.08 0 0 0 -4 .42 2.07 2.07 0 0 0 .12 1.1l.26.47a2 2 0 0 0 .82.66 1.81 1.81 0 0 0 1.85-.09l.2-.11a2.07 2.07 0 0 0 .75-2.45z"/><path d="m121.06 55.85a1.34 1.34 0 0 0 -1.43 1.2 1.32 1.32 0 0 0 1.2 1.42 1.33 1.33 0 0 0 1.42-1.2 1.31 1.31 0 0 0 -1.19-1.42z"/><path d="m123.08 62c-1.33 0-1.09 2.06.23 2.06s1.09-2.06-.23-2.06z"/><path d="m114.46 45.83c-.08 0-.06.12 0 .12s.08-.12 0-.12z"/><path d="m115.86 44.83a1.75 1.75 0 1 0 -2.86 1.77l.39.28-.09-.09.2.13a5.31 5.31 0 0 1 .55.23c.94.45 1.84-.5 1.94-1.35a1.85 1.85 0 0 0 -.13-.97z"/><path d="m120.27 47.67a1.89 1.89 0 0 0 -1.78 2 1.89 1.89 0 1 0 1.78-2z"/><path d="m125.58 51.82c-1.44 0-1.13 2.22.3 2.22s1.12-2.22-.3-2.22z"/><path d="m42.36 42a1.94 1.94 0 0 0 -1.79 2.08 2 2 0 0 0 2.08 1.79 1.94 1.94 0 0 0 1.79-2.08 2 2 0 0 0 -2.08-1.79z"/><path d="m36.67 49.89a1.93 1.93 0 0 0 -1.79 2 1.92 1.92 0 1 0 1.79-2z"/><path d="m34.17 61.69c-1 0-1 1.63.1 1.63s.95-1.63-.1-1.63z"/><path d="m38.56 63.18c-1.67 0-1.91 2.6-.23 2.6s1.91-2.6.23-2.6z"/><path d="m39.1 55.06c-2 0-2.07 3.06-.1 3.06s2.08-3.06.1-3.06z"/><path d="m30.81 51.58h-.24c-.67 0-.68 1.07 0 1h.24a.51.51 0 0 0 0-1z"/><path d="m30.19 50.46a1.08 1.08 0 0 0 -.93 1.19 1.1 1.1 0 0 0 1.19.94 1.07 1.07 0 0 0 .93-1.19 1.09 1.09 0 0 0 -1.19-.94z"/><path d="m37.54 45.75a1.18 1.18 0 0 0 -.21-.8 1.06 1.06 0 0 0 -.82-.68h-.16a1.11 1.11 0 0 0 -1.25 1.24 1.32 1.32 0 0 0 .5 1 1.51 1.51 0 0 0 .62.27c.19 0 .59.06.16-.1.62.14 1.33-.26 1.16-.93z"/><path d="m66.67 7.54a1.47 1.47 0 1 0 1.4 1.54 1.49 1.49 0 0 0 -1.4-1.54z"/><path d="m74.9 4a2 2 0 0 0 -1.81 2.11 2 2 0 0 0 2.11 1.8 2 2 0 0 0 1.8-2.15 2 2 0 0 0 -2.1-1.76z"/><path d="m81.74 8.91a1.79 1.79 0 1 0 1.86 1.73 1.8 1.8 0 0 0 -1.86-1.73z"/><path d="m93.51 9.69a1.92 1.92 0 0 0 -1.78 2 1.93 1.93 0 0 1 0 .24 1.89 1.89 0 0 0 3.78-.23c0-.08 0-.16 0-.24a1.9 1.9 0 0 0 -2-1.77z"/><path d="m86 4.5a1.74 1.74 0 1 0 1.77 1.7 1.74 1.74 0 0 0 -1.77-1.7z"/><path d="m72.55 10.26c-2 0-2.1 3.13-.07 3.13s2.09-3.13.07-3.13z"/><path d="m62.56 14.36a2.22 2.22 0 0 0 -2.44-1.87 2.18 2.18 0 0 0 -1.87 2.43 2.23 2.23 0 0 0 2.44 1.87 2.17 2.17 0 0 0 1.87-2.43z"/><path d="m55.93 17c-2 0-2.09 3.14-.06 3.14s2.13-3.14.06-3.14z"/><path d="m75.1 4.16h-.54a2.06 2.06 0 0 0 -1.84 2.24 2.09 2.09 0 0 0 2.28 1.84h.54a2.06 2.06 0 0 0 1.8-2.24 2.09 2.09 0 0 0 -2.24-1.84z"/><path d="m96 13.88a1 1 0 0 0 -.88 1.12 1.08 1.08 0 0 0 1.17.92 1 1 0 0 0 .92-1.16 1.07 1.07 0 0 0 -1.21-.88z"/><path d="m101.11 11.58a.76.76 0 0 0 0-.66c-.37-.75-1.35-.17-1.23.53v.08a.52.52 0 0 0 .91.33.11.11 0 0 0 .07 0h.05a.76.76 0 0 0 .11-.14z"/><path d="m102.35 16.36a2.3 2.3 0 0 0 -2.5 1.95 2.26 2.26 0 0 0 2 2.5 2.29 2.29 0 0 0 2.49-2 2.23 2.23 0 0 0 -1.99-2.45z"/><path d="m70.12 3.6a1.51 1.51 0 0 0 -.56 0 1.21 1.21 0 0 0 0 2.39 1.14 1.14 0 0 0 .55 0 1.2 1.2 0 0 0 .01-2.39z"/><path d="m60.61 7.52c-1.19 0-1 1.85.15 1.85s1.04-1.85-.15-1.85z"/><path d="m65.78 12.6c-.45 0-.5.7 0 .7s.45-.7 0-.7z"/><path d="m65.19 13.17c-.08 0-.07.12 0 .12s.07-.12 0-.12z"/><path d="m65.7 12.43-.34-.13a.53.53 0 0 0 -.18 0h-.11-.07c-.06 0-.1 0-.16 0h-.14a.91.91 0 0 0 -.67.81 1.48 1.48 0 0 0 0 .21.84.84 0 0 0 .58.82l.14.05h.09.13a.66.66 0 0 0 .14 0 1.42 1.42 0 0 0 .41-.08c.24-.13.3-.16.17-.08a.9.9 0 0 0 .01-1.6z"/><path d="m78.4 9.38a1.69 1.69 0 0 0 -.61-.24 1.62 1.62 0 1 0 0 3.12 1.44 1.44 0 0 0 .57-.2 1.57 1.57 0 0 0 .04-2.68z"/><path d="m79.53 4.64h-.24a.45.45 0 0 0 -.29.07.08.08 0 0 0 0 0 .41.41 0 0 0 -.08.44.34.34 0 0 0 .06.12.71.71 0 0 0 .07.09.4.4 0 0 0 .13.07h.06a.43.43 0 0 0 .23 0h.08c.56-.02.45-.73-.02-.79z"/><path d="m87.16 9.89-.16-.06a1.16 1.16 0 0 0 -1 1 1.16 1.16 0 0 0 1 1.29c2.06.01 1.42-2.65.16-2.23z"/><path d="m92.7 5.53c-1.23 0-1 1.89.17 1.89s1.05-1.89-.17-1.89z"/><path d="m56.6 11.91a1 1 0 0 0 -.73-.6h-.09-.31a1.09 1.09 0 0 0 -.8.56 1.07 1.07 0 0 0 -.08 1l.08.18a1 1 0 0 0 1.88.06l.09-.22a1.09 1.09 0 0 0 -.04-.98z"/><path d="m50.49 20c-1.14 0-1 1.76.13 1.76s1-1.76-.13-1.76z"/><path d="m106.43 20.25a1.45 1.45 0 0 0 -1.51 1.35 1.43 1.43 0 0 0 1.34 1.51 1.45 1.45 0 0 0 1.51-1.35 1.42 1.42 0 0 0 -1.34-1.51z"/><path d="m107.11 16.12a1 1 0 0 0 -.29.11.11.11 0 0 0 0 .2.82.82 0 0 0 .31.11.21.21 0 1 0 -.02-.42z"/><path d="m104.08 13.39a1.06 1.06 0 0 0 -.5-.12 1.42 1.42 0 0 0 -1.39.91 1.37 1.37 0 0 0 .52 1.59 1.29 1.29 0 0 0 1.21.19l.12-.07a.49.49 0 0 0 .16-.05 1.34 1.34 0 0 0 -.12-2.45z"/><path d="m107.7 16.27h-.23c-.18-.06-.18.24 0 .18h.23a.06.06 0 1 0 0-.18z"/><path d="m108.18 17.17a.93.93 0 0 0 0-1.67h-.07a1 1 0 0 0 -.26-.11l-.19-.06h-.13-.09-.16a.94.94 0 0 0 -.9.95v.12a.33.33 0 0 0 0 .1.89.89 0 0 0 .68.89h.15s.08 0 .13 0a.53.53 0 0 0 .13 0 .72.72 0 0 0 .21-.05h.07a1.33 1.33 0 0 0 .43-.17z"/><path d="m53.26 21.52a1 1 0 0 0 -.71 1.59v.09a1 1 0 0 0 1.62-.13.75.75 0 0 0 .07-.12 1 1 0 0 0 -.98-1.43z"/><path d="m52 14.33a.59.59 0 0 0 0 1.18.59.59 0 0 0 0-1.18z"/><path d="m50.26 25.56c-.07 0-.06.12 0 .12s.08-.12 0-.12z"/><path d="m50.15 24.58a1 1 0 0 0 -.92 1.16 1.07 1.07 0 0 0 1.16.93 1.05 1.05 0 0 0 -.24-2.09z"/><path d="m110.78 21.8c-.94 0-.89 1.45 0 1.45s.94-1.45 0-1.45z"/><path d="m109.58 26c-1.28 0-1.07 2 .2 2s1.07-2-.2-2z"/></g></svg>