<svg viewBox="0 0 180 257.72" xmlns="http://www.w3.org/2000/svg"><path d="m82.32 242.37a11.8 11.8 0 0 0 4.2-2.07 2.57 2.57 0 0 0 .09-3.71c-1.73-1.5-4.77-1.09-6.79-.78-1.19.18-3.79 1.64-6.18 2.61a9.09 9.09 0 0 0 -1.67.17 17.33 17.33 0 0 1 .29-4.59c1-4.62 4.27-6.73 6.32-10.57.75-1.41-.86-3.33-2.38-2.61a11.29 11.29 0 0 1 -2.7 1.08 1.67 1.67 0 0 0 -1 .79.27.27 0 0 0 -.07-.08 24.69 24.69 0 0 1 1.57-2.27 1.89 1.89 0 0 0 -2.88-2.46 15.91 15.91 0 0 0 -2.24 3.3c-.25.43-.5.85-.73 1.29a1.05 1.05 0 0 0 -1.62.52 2.33 2.33 0 0 1 -.07.25 5.14 5.14 0 0 0 -.83.69 4.22 4.22 0 0 0 -.79-1.71c-.06-.18-.12-.35-.2-.54a1 1 0 0 0 -1.85-.07.77.77 0 0 0 -.32.3.67.67 0 0 1 -.06.12 3.32 3.32 0 0 0 -1.8-1.62 1.2 1.2 0 0 0 -1.23.28c-2.44-6.07-3-14.3-2.11-20.69 0-.07-.1-.09-.11 0-1.17 6.43-2.14 13.8 0 20.27 1.82 5.55 4.15 12.12 7.41 17.43v.43c-4.54 0-9.26.44-13 3.19a1.82 1.82 0 0 0 -.71 2.08c2.23 5.33 12.79-.37 16.37-.36.57 0-.3.92-.33 2.06-.07 2.36-.49 4.12 0 6.47.55 2.7 1 5.56 4.13 6.14a1.92 1.92 0 0 0 2-1 8.13 8.13 0 0 0 .61-5.13c-.21-1.3-1.27-4.81-1.63-7.43a.54.54 0 0 0 .05-.11l.51.13c.6.59 1.14 1.15 1.47 1.41a26.56 26.56 0 0 0 6.32 3.23c2.69 1.08 6.44 2.67 9.34 1.78a2 2 0 0 0 1.3-1.94c.21-3.9-4.62-5.37-8.68-6.28z" fill="#13a4a8"/><path d="m101.76 241.64a11.36 11.36 0 0 1 -4.29-1.64 2.62 2.62 0 0 1 -.47-3.7c1.53-1.66 4.52-1.55 6.52-1.43 1.17.07 3.84 1.27 6.26 2a9.83 9.83 0 0 1 1.63 0 16.81 16.81 0 0 0 -.73-4.53c-1.45-4.51-4.81-6.29-7.18-9.91-.87-1.34.5-3.4 2-2.83a11 11 0 0 0 2.73.81 1.68 1.68 0 0 1 1 .69l.06-.09a26.29 26.29 0 0 0 -1.74-2.11c-1.64-1.77.77-4.35 2.55-2.72a15.57 15.57 0 0 1 2.51 3.07l.84 1.21a1 1 0 0 1 1.62.36l.09.24a6.37 6.37 0 0 1 .88.61 4.36 4.36 0 0 1 .59-1.78c0-.18.09-.36.15-.55a1 1 0 0 1 1.79-.25.73.73 0 0 1 .34.27l.06.11a3.33 3.33 0 0 1 1.59-1.79 1.16 1.16 0 0 1 1.23.17c1.77-6.29 1.52-14.53 0-20.8a.06.06 0 0 1 .11 0c1.76 6.29 3.44 13.52 2 20.17-1.21 5.69-2.83 12.46-5.47 18.06v.43c4.42-.47 9-.45 12.91 1.92a1.84 1.84 0 0 1 .9 2c-1.64 5.52-12.46.86-15.94 1.21-.55.06.39.89.53 2 .3 2.34.88 4 .65 6.43-.26 2.74-.42 5.64-3.4 6.51a1.85 1.85 0 0 1 -2.07-.8 8.37 8.37 0 0 1 -1.01-4.98c.07-1.31.76-4.9.85-7.55l-.06-.1-.48.18c-.53.64-1 1.26-1.29 1.54a25.44 25.44 0 0 1 -5.82 3.82c-2.5 1.34-6 3.28-8.9 2.68a1.94 1.94 0 0 1 -1.3-1.84c-.64-3.86 3.9-5.79 7.76-7.09z" fill="#13a4a8"/><g fill="#19b8bd"><path d="m152.55 178.83c0 37.37-27.28 48.24-60.94 48.24s-60.94-10.87-60.94-48.24-58-84.09 60.94-87.1c111.49-2.82 60.94 49.73 60.94 87.1z"/><path d="m57.75 22.33a8 8 0 0 0 -.36-1 .56.56 0 0 0 0-.12l-.12-.27-.09-.19c-2.62-5.79-7.51-6-13.46-5.77a8.39 8.39 0 0 0 -2.22.39c3.27-2.09 7.21-.95 11.17-1.12 3.23-.13 3.52-6.46 1.06-7.71-4.06-2.07-10.52-.86-14 1.94a48.36 48.36 0 0 0 -4.23 3.89 6.37 6.37 0 0 0 .21-5.42 1.75 1.75 0 0 0 -2.62-.95c-3.3 2.06-4.5 3.71-5.92 7.53-.75 2 .2 4.25-.32 6.28-.18.71-.31 1.42-.44 2.13-28.36 31.82-31.8 68.76-20.13 101.39 2.58 7.18 11.22 21 20.08 20.5a.55.55 0 0 0 .53-.68l-.09-.34a.45.45 0 0 0 -.86 0 9.33 9.33 0 0 1 -1.73-1.33 13 13 0 0 0 1.33.45c.16.05.26-.12.15-.25-42.94-50 11.73-110.89 12.94-112 3.13 1.88 1.28 7.1 4.57 9.12 3.51 2.16 6.77-1.07 7.07-4.5.33-3.67-3.21-9-6.26-10.84a10 10 0 0 0 -4.22-1.46c1.15-.39 2.5-.7 2.45-.69 2.87-.6 4.94-.46 6.57 2.26a9.4 9.4 0 0 0 4.64 3.95c3.17 1.53 4.38-1.34 4.34-4a2.45 2.45 0 0 0 -.04-1.19z"/><path d="m108.33 16.84a9.13 9.13 0 0 1 .45-1 1.17 1.17 0 0 1 0-.11c0-.1.1-.18.16-.28l.11-.19c3.24-5.78 9.31-6.05 16.69-5.77a13.91 13.91 0 0 1 2.76.39c-4.05-2.08-9-.95-13.86-1.12-4-.13-4.37-6.46-1.32-7.71 5.09-2.05 13.11-.86 17.42 1.95a59.52 59.52 0 0 1 5.26 3.87 5.24 5.24 0 0 1 -.26-5.42 2.39 2.39 0 0 1 3.2-.94c4.06 2.06 5.58 3.71 7.34 7.49.93 2-.24 4.25.4 6.28.22.71.39 1.42.55 2.13 35.19 31.82 39.46 68.76 25 101.39-3.19 7.18-13.92 21-24.91 20.5-.43 0-.78-.32-.66-.68l.12-.34c.13-.41.91-.48 1.06 0a13.11 13.11 0 0 0 2.16-1.28q-.81.25-1.65.45c-.19 0-.32-.13-.18-.26 53.29-50-14.55-110.89-16.06-112-3.88 1.88-1.59 7.1-5.66 9.12a6 6 0 0 1 -8.79-4.5c-.41-3.67 4-9 7.77-10.84a14.6 14.6 0 0 1 5.24-1.39c-1.42-.39-3.09-.7-3-.69-3.56-.59-6.12-.46-8.15 2.26-1.52 2-3.14 2.93-5.75 3.95-4 1.54-5.44-1.34-5.39-4a2.09 2.09 0 0 1 -.05-1.26z"/><path d="m66.2 222.08c-.07 0-.06.12 0 .12s.08-.12 0-.12z"/><path d="m90.83 202.78a121.13 121.13 0 0 1 -59.6-15.3c4 30.41 29.48 39.59 60.38 39.59 31.22 0 56.94-9.37 60.5-40.55a120.84 120.84 0 0 1 -61.28 16.26z" opacity=".5"/><g opacity=".5"><path d="m152.48 181.69c0-.94.07-1.89.07-2.86a62.69 62.69 0 0 1 1.74-13.61c-18.29 6.71-41.35 10.78-66.48 10.78-21.61 0-41.71-3-58.53-8.06a48.52 48.52 0 0 1 1.39 10.94c0 1 0 1.89.06 2.82 17.27 5.5 38.27 8.76 60.94 8.76s43.55-3.24 60.81-8.77z" opacity=".2"/><path d="m91.67 101.67a212.42 212.42 0 0 0 49.14-5.53c-11-3.31-26.86-5-49.2-4.41-20.16.51-35.23 2.28-46.36 5a215 215 0 0 0 46.42 4.94z" opacity=".2"/><path d="m91 126c27.49 0 52.54-4.8 71.48-12.69a23.43 23.43 0 0 0 -10.08-12.12c-18.06 6.45-40.68 10.3-65.26 10.3-21.76 0-42-3-58.89-8.18a24.08 24.08 0 0 0 -9.49 9.69c19.02 8.09 44.39 13 72.24 13z" opacity=".2"/><path d="m90.65 151.73c27.15 0 51.94-4.69 70.79-12.4 1.56-6.06 2.65-11.93 2.56-17.33-19.46 9.39-46.85 15.24-77.19 15.24-26.86 0-51.38-4.59-70.16-12.16a59.3 59.3 0 0 0 3.08 14.21c18.85 7.71 43.69 12.44 70.92 12.44z" opacity=".2"/><path d="m155.83 159c1.63-6 3.59-12.1 5.17-18-19.13 8.31-44.87 13.41-73.19 13.41-25.2 0-48.35-4-66.62-10.78 1.76 5 3.74 10 5.44 15.09 18 6.4 40.57 10.2 65 10.2 24.12 0 46.37-3.69 64.2-9.92z" opacity=".2"/></g></g><path d="m109.5 59.79a5.63 5.63 0 0 1 .77-.2 9.89 9.89 0 0 1 1.19-.06 10 10 0 0 1 1.35.14 14.94 14.94 0 0 1 3.11 1 21.57 21.57 0 0 1 3.18 1.81 15.71 15.71 0 0 1 2.71 2.39 10.89 10.89 0 0 1 1 1.29 9.67 9.67 0 0 1 .78 1.24 11 11 0 0 1 .53 1.12 4.8 4.8 0 0 1 .32.88l.22.78a.2.2 0 0 1 -.13.24.21.21 0 0 1 -.21-.07l-.47-.63a5.29 5.29 0 0 0 -.54-.68 8.26 8.26 0 0 0 -.78-.81 14.11 14.11 0 0 0 -2.16-1.69 16.71 16.71 0 0 0 -2.77-1.4 17.59 17.59 0 0 0 -5.46-1.24c-.36-.05-.67-.05-1-.11a2.52 2.52 0 0 1 -.59-.09 4.78 4.78 0 0 1 -.79-.07 2 2 0 0 1 -.32-3.86z"/><path d="m64.67 62.19a8.13 8.13 0 0 1 -.88.34 6.41 6.41 0 0 1 -.77.32c-.31.13-.71.27-1.12.42-.85.33-1.89.65-3 1.15a27.62 27.62 0 0 0 -3.29 1.75 25 25 0 0 0 -3 2.2 16.06 16.06 0 0 0 -1.25 1.21 11.89 11.89 0 0 0 -1 1.18 7.42 7.42 0 0 0 -.78 1.08 6.48 6.48 0 0 0 -.52.9l-.42.82a.22.22 0 0 1 -.41-.12s0-.35.13-1a5.51 5.51 0 0 1 .24-1.1 9.79 9.79 0 0 1 .4-1.34 15.26 15.26 0 0 1 1.77-3.25 21.84 21.84 0 0 1 2.75-3.25 25.3 25.3 0 0 1 3.28-2.75c.56-.4 1.11-.77 1.66-1.09a14.78 14.78 0 0 1 1.59-.86 13.53 13.53 0 0 1 1.47-.54 11.27 11.27 0 0 1 1.29-.3 6.72 6.72 0 0 1 1 0 2.24 2.24 0 0 1 .91 4.24z"/><path d="m67.87 108.14a19.5 19.5 0 0 1 -19.48-19.48 17.08 17.08 0 0 1 .31-3.09 19.45 19.45 0 1 1 19.17 22.57z" fill="#f0d907"/><path d="m67.87 108.14a19.5 19.5 0 0 1 -19.48-19.48 17.08 17.08 0 0 1 .31-3.09 19.45 19.45 0 1 1 19.17 22.57z" fill="#f0d907"/><path d="m51.78 88.66a16.1 16.1 0 1 0 16.09-16.1 16.09 16.09 0 0 0 -16.09 16.1z" fill="#fff"/><path d="m52.38 84.54a16 16 0 0 0 31.49 3.15c0 .33.1.64.1 1a16.1 16.1 0 1 1 -31.59-4.12z" fill="#e8e8e8"/><path d="m61.88 91.64a8 8 0 1 0 -.68-11.32 8 8 0 0 0 .68 11.32z"/><path d="m65.61 84.24a3.21 3.21 0 1 0 -.26-4.53 3.22 3.22 0 0 0 .26 4.53z" fill="#fff"/><path d="m109.74 108.14a19.5 19.5 0 0 1 -19.48-19.48 17.08 17.08 0 0 1 .31-3.09 19.45 19.45 0 1 1 19.17 22.57z" fill="#f0d907"/><path d="m109.74 108.14a19.5 19.5 0 0 1 -19.48-19.48 17.08 17.08 0 0 1 .31-3.09 19.45 19.45 0 1 1 19.17 22.57z" fill="#f0d907"/><path d="m93.65 88.66a16.1 16.1 0 1 0 16.09-16.1 16.1 16.1 0 0 0 -16.09 16.1z" fill="#fff"/><path d="m94.25 84.54a16 16 0 0 0 31.49 3.15c0 .33.1.64.1 1a16.1 16.1 0 1 1 -31.59-4.12z" fill="#e8e8e8"/><path d="m103.75 91.64a8 8 0 1 0 -.68-11.32 8 8 0 0 0 .68 11.32z"/><path d="m107.48 84.24a3.21 3.21 0 1 0 -.27-4.53 3.22 3.22 0 0 0 .27 4.53z" fill="#fff"/><path d="m110.06 124.36c0 5.41-8.86 13.19-19.8 13.19s-19.8-7.78-19.8-13.19 8.86-3.77 19.8-3.77 19.8-1.59 19.8 3.77z" fill="#6e2810"/><path d="m90.26 136.12c-10.44 0-19-7.09-19.73-12.44a4.73 4.73 0 0 0 -.07.68c0 5.41 8.86 13.19 19.8 13.19s19.8-7.78 19.8-13.19a4.73 4.73 0 0 0 -.07-.68c-.76 5.32-9.29 12.44-19.73 12.44z" fill="#f0b65e"/><path d="m90.26 120.59c-4.74 0-9.09-.31-12.5-.22h-.49s-4.06 7-2.08 7.37c2.7.55 6.94 2 7.4.09l2.14-4.52s-1 4.43 0 5.39 3.53 1.45 5.91 1.37c2.39.08 4.89-.38 5.92-1.37s0-5.39 0-5.39l2.14 4.52c.46 1.91 4.7.46 7.4-.09 1.92-.4-1.87-7-2.07-7.34-3.56-.2-8.41.19-13.77.19z" fill="#fff"/></svg>