<svg viewBox="0 0 180 232.96" xmlns="http://www.w3.org/2000/svg"><path d="m78.05 219.3c-3.6-2.55-7.56-2.12-11.58-1.23a3.88 3.88 0 0 1 -.38-.91c-1.06-4.18-.44-9.39 0-13.67.73-7 2.51-13.93 3.85-20.79a.71.71 0 0 0 -1.29-.55c-3.38 4.85-5.21 10.85-6.33 16.77-2.16-6.92-5.22-13.74-6.72-20.52a.69.69 0 0 0 -1.35.17c.17 6.35 3.06 12.5 4.63 18.59s2.54 13.63 1.4 20.17c-4.72 2.91-12.8 1.62-18.06 3.33a2.43 2.43 0 0 0 -1.56 2.56c1.34 6.44 6.14 6.43 11.24 5a2.92 2.92 0 0 0 1.1 3.34c4.66 3.93 7.71-1.22 10.43-5.15 2.41 3.35 6.2 7.72 10.17 4.64 2.39-1.84 2.11-4 .67-5.85a5.83 5.83 0 0 0 4.14-2.44 2.5 2.5 0 0 0 -.36-3.46z" fill="#5057b8"/><path d="m98.3 219.3c3.74-2.55 7.85-2.12 12-1.23a3.55 3.55 0 0 0 .4-.91c1.1-4.18.46-9.39 0-13.67-.75-7-2.6-13.93-4-20.79a.74.74 0 0 1 1.34-.55c3.51 4.84 5.41 10.83 6.56 16.77 2.25-6.92 5.42-13.74 7-20.52a.72.72 0 0 1 1.4.17c-.18 6.35-3.17 12.5-4.81 18.59s-2.63 13.63-1.45 20.17c4.9 2.91 13.29 1.62 18.75 3.33a2.44 2.44 0 0 1 1.62 2.56c-1.39 6.44-6.38 6.43-11.67 5a2.87 2.87 0 0 1 -1.13 3.31c-4.84 3.93-8-1.22-10.83-5.15-2.5 3.35-6.43 7.72-10.56 4.64-2.47-1.84-2.19-4-.69-5.85a6.1 6.1 0 0 1 -4.29-2.44 2.43 2.43 0 0 1 .36-3.43z" fill="#5057b8"/><path d="m93.72 89.86a17.47 17.47 0 0 1 -16.62-18.24 15.73 15.73 0 0 1 .4-2.75 17.43 17.43 0 1 1 16.22 21z" fill="#f0d907"/><path d="m93.72 89.86a17.47 17.47 0 0 1 -16.62-18.24 15.73 15.73 0 0 1 .4-2.75 17.43 17.43 0 1 1 16.22 21z" fill="#f0d907"/><path d="m80.13 71.76a14.42 14.42 0 1 0 15.07-13.76 14.42 14.42 0 0 0 -15.07 13.76z" fill="#fff"/><path d="m80.84 68.1a14.35 14.35 0 0 0 28.05 4.13c0 .3.06.57 0 .87a14.42 14.42 0 1 1 -28.1-5z" fill="#e8e8e8"/><path d="m83.5 68.22a7.19 7.19 0 1 0 7.5-6.85 7.2 7.2 0 0 0 -7.5 6.85z"/><path d="m90.77 66.66a2.87 2.87 0 1 0 3-2.73 2.87 2.87 0 0 0 -3 2.73z" fill="#fff"/><path d="m141.3 129.66c-2 42.3-27.38 54.17-58 52.75s-54.81-15.61-52.84-57.91 29.37-96.67 60-95.25 52.81 58.12 50.84 100.41z" fill="#5057b8"/><path d="m60.82 22.07c-2.33 0-3.34 1.07-3.72 3.5-1.84-2.58-3.31-6.63-2.47-9.78-5.66 1.46-6.46 6-5 10.16a8.41 8.41 0 0 1 -1-1.38c-1.59-3.29-2.38-10.87-1-15.1a14 14 0 0 0 -5.23 5.62 17.15 17.15 0 0 0 -2.1 6.65 11 11 0 0 0 0 1.9c-2.46-2-4.67-5.28-6.4-11-4.78 2.67-6.53 9.6-6.82 14.34-4.4-2.67-6.7-9.61-7.22-12.65-2.7 2.21-5 7.16-4.3 12.36-2.84-1.4-5.21-4.69-8.31-9.12-3.62 7.32-.4 14.59 1.75 15.89-2.64.45-5.34-1.54-9-4.16 3 12.26 8.45 22 23.49 17.53 9.25-2.77 19.9-9.28 40.13 3.71 0 0 7.72-1 8.6-10.21-4.9-5.76-11.88-4.47-11.4-18.26z" fill="#ff2377"/><path d="m120.11 24.83c2.32.24 3.23 1.38 3.38 3.83 2.07-2.4 3.92-6.3 3.37-9.5 5.5 2 5.87 6.57 4 10.57a8.4 8.4 0 0 0 1.14-1.28c1.89-3.13 3.38-10.6 2.37-14.95a14 14 0 0 1 4.63 6.09 17 17 0 0 1 1.47 6.81 10.27 10.27 0 0 1 -.23 1.89c2.65-1.75 5.15-4.82 7.4-10.4 4.51 3.1 5.62 10.16 5.47 14.92 4.62-2.25 7.55-9 8.36-11.93 2.48 2.46 4.3 7.59 3.14 12.71 2.95-1.13 5.61-4.19 9.11-8.31 3.07 7.67-.82 14.61-3.06 15.72 2.59.68 5.46-1 9.33-3.32-4.11 11.94-10.45 21.14-24.99 15.32-8.95-3.61-18.95-11.08-40.31 0 0 0-7.58-1.74-7.6-11 5.39-5.32 12.22-3.39 13.02-17.17z" fill="#ff2377"/><path d="m100 22.45a16.8 16.8 0 0 0 -1.91-11.62 6.81 6.81 0 0 1 -3.09 6.49c.45-2.6-2.8-14.09-6.93-17.32.74 3.79-.74 6.27-1.26 9.76a40.21 40.21 0 0 1 -1.18-5.14c-2.29 2.82-5.71 9.38-4.46 13.38a12.87 12.87 0 0 0 -2.73-4.76c-2.65 6.41-1.26 12.13 5.89 14.87-1.4 1.27-4.67.69-6.54.27 3.59 3.23 9.65 3.29 14.2 2.86 4.01-.36 7.24-4.49 8.01-8.79z" fill="#ff2377"/><path d="m98.68 38s-10.84-7.69-21.1-2.15c-5 2.67-.51 5.2.55 4.64 9.1-4.83 20.55-2.49 20.55-2.49z" fill="#242424"/><path d="m84.54 87.31a23.15 23.15 0 0 1 -18.77-26.78 20.41 20.41 0 0 1 1-3.59 23 23 0 0 1 44.67 10.23 8.3 8.3 0 0 1 -.13 1.38 23.14 23.14 0 0 1 -26.77 18.76z" fill="#315400"/><path d="m70.64 61.38a18.18 18.18 0 1 0 21.06-14.75 18.18 18.18 0 0 0 -21.06 14.75z" fill="#fff"/><path d="m72.12 56.91a18.1 18.1 0 0 0 34.42 9.69c-.05.37 0 .73-.09 1.1a18.18 18.18 0 1 1 -35.81-6.32 17.39 17.39 0 0 1 1.48-4.47z" fill="#e8e8e8"/><path d="m75.43 57.5a9.06 9.06 0 1 0 10.49-7.35 9.06 9.06 0 0 0 -10.49 7.35z"/><path d="m84.77 56.72a3.62 3.62 0 1 0 4.23-2.94 3.61 3.61 0 0 0 -4.23 2.94z" fill="#fff"/><path d="m123.9 83.78c-3.75-2.87-8 1.21-8 1.21a43.16 43.16 0 0 1 -27.82 10.21v-.11c-1.37 0-2.74-.11-4.1-.26a43.07 43.07 0 0 1 -28.98-15.92s-3.35-4.81-7.58-2.71c-3.9 1.94-7.81 41.25 27.59 48.81v.09c1 .24 1.92.47 2.91.65 1.33.23 2.69.4 4 .51 41.42 3.47 45.62-39.7 41.98-42.48z" fill="#599100"/><path d="m84.32 98.17a49.27 49.27 0 0 1 -33.26-16.3 27.79 27.79 0 0 0 -.94 5.19c-1.4 17.45 13.08 32.85 32.33 34.39s36-11.34 37.39-28.8a28.91 28.91 0 0 0 -.09-5.27 49.34 49.34 0 0 1 -35.43 10.79z" fill="#315400"/><path d="m100.47 105.55c-5.43 9.87-28.31 6.39-28.31 6.39s-.44 4.07-.76 6.92a38.06 38.06 0 0 0 11 2.59c12.48 1 23.87-4.08 30.75-12.51-2.76-5.49-8.32-11.32-12.68-3.39z" fill="#fff"/><path d="m66.16 116.32c-2-6.92 1-18-2.59-15-2.14 1.82-4.25 5.19-5.79 8a34.66 34.66 0 0 0 8.38 7z" fill="#fff"/><path d="m110.57 93.23a17.1 17.1 0 0 1 3 5.49c1.17 3.91 4-5.47 3.62-9.46a46.83 46.83 0 0 1 -6.62 3.97z" fill="#fff"/><path d="m64.06 92.16a50.28 50.28 0 0 1 -5.69-3.61 27.06 27.06 0 0 0 -2.09 9c-.02 4.57 3.46-2.85 7.78-5.39z" fill="#fff"/><path d="m158.56 116.89c3.14.68 1.11.91 7.6 2.59a53 53 0 0 0 -5.81-18.15 8.11 8.11 0 0 0 1.12.35 4.15 4.15 0 0 0 -1.68-3.28 30.32 30.32 0 0 1 3.54 2.6c-1.94-5.12-4.83-12.45-12.32-16.25-3.36-1.7-16.12-7.81-19-10.58 1.08 1.65.84 3.81 1.83 5.46a20.06 20.06 0 0 0 -4-1.27c.24 2.31 4.35 7.84 6.46 8.41-2.38.29-2.59-1-8.13-1.31 2.33 2.6 5.95 7.55 8.48 10-2.74-.21-6 0-8.41 1.36 3 3.93 6.56 6.26 9.08 9.73-.85-.37-4.7.08-5.65-.26 1.64 8 5.4 9.38 6.91 17.83-1.09-1.91-4.29-3.62-6.78-4.71 2.39 5.14 2 13.92.6 20.83-2.46-.91-5.18-1.93-6.66-4.17.78 6.27.21 10.6-3 16.13-.77-3.26-.85-7.39-3-10.15 2.1 5.8-5 20.65-11.13 21.32-.56-1.94-.83-4.12-1.91-5.87-2.28 1.5-3.78 4.5-4.8 7a14.77 14.77 0 0 1 -2.71-5.85c-1.39 4.15-.95 7.74-4.29 11.57-5.66-9-4.14 2.33-7.34 6.78-1.72-13.14-9.53-13.65-8.5-25.14-2.67.34-5.54 4-6.49 6.51-1.07-2.53-.41-10.05-2.12-11.9-2 2.13-3.28 1.17-5.56 4.45-1.19-3-1.46-8.27-1.44-11.54-3.13 0-4.86 2.6-5.4 5.46-2.05-5.83-4.67-14.5-1.67-20.12-5.72.4-8.58 4.59-12.23 8.15-2.81-5.42-1-9.94 3.54-14.56a16.28 16.28 0 0 0 -9.49-5.62c1.56-1.43 3.58-4.65 6.27-5.71-1.52-5.15-3.58-9.34-6.76-12 2.25.53 4.14.24 6 1.45.29-4.88-2.7-7.87-1.47-10.84.48 1.69 1 2 1.7 2.3.07-2.51.34-4.79.21-7.28-.15-4.61-1.15-6.32-.51-8.47a58.8 58.8 0 0 0 -12.09 9.68c-4.77 5.49-14.24 13-19.73 18 4.24.53 4.9-.48 2.53 2.32-3.22 3.83-6.16 7.63-7 12.89 5.9-2.17 12.57-5.41 10.12 2.93-2.6 8.86-11.82 27.06-3.11 35.24.18-2 1.17-4.15 3.31-4.54 1 7.18 2.63 16 8 21.5-.43-6.51 3.17-5.75 5.24-.82 2.86 6.79 5.18 22.74 14.84 23.81-2.59-3.13-.69-3.52 1.74-1.67 1.92 1.44 3.17 4.77 4.31 6.81l.14-.07c2.06 3.86 4.4 7.06 6 8.14a5.44 5.44 0 0 1 -.26-2.81c.69.53 1.37 1 2 1.58.2.17.43.34.67.52a46.49 46.49 0 0 0 4.06 3.71c.12-.3.24-.63.35-.94 3 1.73 6 3.56 6.88 5.4 1.4-1.86 2.06-4.2 3.08-6.36a20 20 0 0 0 1.7 2.71 33.81 33.81 0 0 0 3.43 3.3c3.33 4.37 8 9 10 11.61a17.09 17.09 0 0 0 .71 2.2c1.77-3.28 8.56-11.48 10.8-17.19.74-.73 1.42-1.49 2-2.22 1.17 2.1 2 4.43 3.47 6.21 1.09-3.16 7.83-6.78 10.4-9.58 1.09-1.18 2.42-2.33 3.59-3.56a23.57 23.57 0 0 1 -1 8.48c4.33-3.32 7.75-9.07 7.93-14.68.25 1.66.93 3.7 1.16 5.14 1.94-3.33 4.49-6.95 5.09-11a16.13 16.13 0 0 0 .12-3.39c1.78-1 2.81-.34.77 2.4a10.31 10.31 0 0 0 2.3-.73 17.11 17.11 0 0 1 .56 3.8c.85-2.31 3.15-4.07 4.28-6.37a24.44 24.44 0 0 0 1.97-5.79c2.23-5.45 3.16-12 4.5-15.83 1.78-5.09 5.55-6.14 5.67.38 5.22-5.89 6.22-14.85 6.61-22.09 2.31.22 3.56 2.27 3.93 4.25 8.59-8.87-2.59-20-6.15-28.62z" fill="#ff2377"/><path d="m163.35 101c.07.12.08.12 0 0z" fill="#ff2377"/><path d="m144.15 126.12a75.42 75.42 0 0 1 -3.15 10.78 24 24 0 0 1 -2 5.67c-1.1 2.24-3.34 4-4.17 6.21a16.87 16.87 0 0 0 -.54-3.71 8.89 8.89 0 0 1 -2.24.71c2-2.66 1-3.29-.75-2.33a15.93 15.93 0 0 1 -.12 3.3c-.58 3.91-3.07 7.43-5 10.67-.22-1.39-.89-3.39-1.12-5-.19 5.46-3.52 11.07-7.73 14.3a23.05 23.05 0 0 0 1-8.26c-1.15 1.2-2.45 2.31-3.5 3.47-2.5 2.73-9.07 6.25-10.13 9.33-1.46-1.73-2.25-4-3.38-6-.61.71-1.27 1.45-2 2.16-2.19 5.56-8.81 13.55-10.53 16.75a17.93 17.93 0 0 1 -.69-2.15c-1.93-2.5-6.45-7-9.69-11.31a33.2 33.2 0 0 1 -3.35-3.21 19 19 0 0 1 -1.64-2.65c-1 2.11-1.65 4.39-3 6.2-.85-1.79-3.82-3.57-6.7-5.26-.11.31-.22.63-.34.92a47.18 47.18 0 0 1 -4-3.61l-.65-.51c-.59-.52-1.26-1-1.92-1.53a5.1 5.1 0 0 0 .25 2.72c-1.51-1-3.79-4.16-5.8-7.92a.52.52 0 0 1 -.13.06c-1.12-2-2.33-5.22-4.2-6.63-2.37-1.79-4.22-1.42-1.7 1.63-9.41-1-11.66-16.58-14.45-23.19a8.44 8.44 0 0 0 -2.1-3.16c-2.54 7.7-9.06 21.63-2.2 28.07.15-1.66 1-3.45 2.75-3.78.8 6 2.19 13.33 6.64 17.87-.36-5.41 2.63-4.78 4.35-.68 2.38 5.64 4.3 18.9 12.32 19.78-2.14-2.59-.56-2.92 1.46-1.39 1.59 1.21 2.63 4 3.58 5.66l.12-.05c1.71 3.21 3.65 5.87 4.94 6.76a4.48 4.48 0 0 1 -.22-2.33c.57.44 1.14.87 1.65 1.31.17.14.35.29.55.43a40.21 40.21 0 0 0 3.38 3.09c.1-.25.2-.52.29-.79 2.45 1.44 5 3 5.71 4.49 1.17-1.54 1.72-3.49 2.57-5.29a16.55 16.55 0 0 0 1.4 2.26 27.75 27.75 0 0 0 2.86 2.74c2.77 3.64 6.62 7.51 8.27 9.65a13.44 13.44 0 0 0 .59 1.83c1.47-2.72 7.11-9.54 9-14.29.61-.61 1.17-1.23 1.69-1.84 1 1.75 1.64 3.68 2.88 5.16.91-2.63 6.51-5.63 8.64-8 .91-1 2-1.93 3-3a19.75 19.75 0 0 1 -.82 7.05 17.08 17.08 0 0 0 6.59-12.21c.2 1.38.77 3.09 1 4.28 1.61-2.77 3.73-5.77 4.22-9.11a13.3 13.3 0 0 0 .11-2.81c1.48-.82 2.33-.29.64 2a7.89 7.89 0 0 0 1.91-.6 14.27 14.27 0 0 1 .45 3.17c.71-1.92 2.62-3.38 3.55-5.29a20.23 20.23 0 0 0 1.74-4.85c1.86-4.53 2.62-10 3.74-13.15 1.48-4.23 4.61-5.11 4.71.31 4.34-4.89 5.17-12.34 5.49-18.36 1.93.18 3 1.9 3.27 3.54 6-6.15.46-13.62-3.24-20.08z" fill="#ff3381"/><g fill="#5057b8"><path d="m48.48 177.79c-.09 0-.07.14 0 .14s.1-.14 0-.14z"/><path d="m55.29 178.5c-.1 0-.08.14 0 .14s.09-.14 0-.14z"/><path d="m18.39 155.19c1.21-7.13 5.55-11.79 9.43-17.55 4.71-7 8.65-13.87 8.9-22.38a.54.54 0 0 0 -1-.31.41.41 0 0 0 -.07.11c-.28-1.22-1.7-2.18-2.77-1-.08.09-.14.19-.21.28a3.94 3.94 0 0 0 -.5-.61.23.23 0 0 0 -.26 0 7.38 7.38 0 0 0 -.92 1.08c-.06-.28-.13-.55-.2-.82a1.53 1.53 0 0 0 -3 .06h-.06a.61.61 0 0 0 -.28.21v.06a10.65 10.65 0 0 0 -2.28 3.73 59.37 59.37 0 0 0 -2.78 6.76c-3.15 5.95-7.08 11.49-10.08 17.53-2.82 5.66-3.44 11.76-3.31 17.9a32.64 32.64 0 0 0 1 6.76c-.5 3.23-2.13 6.15-3.31 9.42-1.69 4.68 3.31 11.82 8.01 12.58 1.37.21 2.93-.83 2.43-2.41a15.18 15.18 0 0 0 -2.23-4.23c-1.92-2.67-2.55-5-2.15-7.33 1.6 2.89 1.85 6.27 5.2 8a2.81 2.81 0 0 0 4.1-2.9 12.15 12.15 0 0 0 -1.17-4 2.42 2.42 0 0 0 2.72-3.13c-1.2-3.18-3-5.89-5.92-7.34a46 46 0 0 1 .71-10.47z"/><path d="m164.59 154.05c-1.53-7.13-7-11.79-11.92-17.56-5.95-7-10.93-13.86-11.24-22.38 0-.54.86-.74 1.25-.31a.44.44 0 0 0 .08.11 2.23 2.23 0 0 1 3.51-1 3.45 3.45 0 0 1 .26.28 3.34 3.34 0 0 1 .63-.61.32.32 0 0 1 .33 0 9.11 9.11 0 0 1 1.16 1.08c.08-.28.17-.56.25-.83.53-1.72 3.31-1.54 3.8.07h.08a.86.86 0 0 1 .36.2l.05.07a10.59 10.59 0 0 1 2.88 3.72 53.34 53.34 0 0 1 3.52 6.76c4 6 8.94 11.5 12.73 17.54 3.53 5.61 4.31 11.76 4.14 17.9a26.18 26.18 0 0 1 -1.26 6.75c.63 3.23 2.69 6.16 4.18 9.43 2.11 4.67-4.12 11.81-10.12 12.53-1.74.21-3.7-.83-3.07-2.41a14.27 14.27 0 0 1 2.82-4.24c2.42-2.67 3.21-5 2.71-7.32-2 2.88-2.33 6.27-6.57 8-2.77 1.13-5.43-.64-5.18-2.89a10.17 10.17 0 0 1 1.48-4c-2 .27-4.32-1.28-3.45-3.11a13.87 13.87 0 0 1 7.49-7.35 36.86 36.86 0 0 0 -.9-10.43z"/></g><g fill="#ff2377"><path d="m28.19 110.06c-4.67 4.25-5.72 10.11-8 15.63.74-1.34 1.25-3.2 2.55-4.09a4.56 4.56 0 0 1 .67.4c-1.64 2.39-1.14 6.47-1 9.25 1.4-2.36 3.61-5.21 6.48-5.82a16.35 16.35 0 0 0 -1.71 6.67c0 1.94.31 9.47 2.74 10 .11-2.72-.18-7.91 3.1-8.9a13.33 13.33 0 0 0 3.65 6.8c-.4-3.32-.93-6.78-.32-10.26.43-2.4 2-6.6.08-8.69 1.13 1 1.58 2.31 3 2.93 2-2.69-.12-8.41-1.94-10.57-1-1.2-2.35-1.84-1.68-3.41s6.19-6.44.63-5.4c-3 .59-6.08 3.48-8.25 5.46z"/><path d="m156.77 120.53c-.54-5.42-2.74-9.64-8.63-11.64-2.55-.87-6.44.06-9.45 1.93a21 21 0 0 1 1.71 6.25c.46 3.09 1 6.16 1.16 9.25.43 1.31.75 2.65 1.27 3.91.33.79 2.89 4.16 2.73 4.76.61-2.33 1.07-4.8 1.68-7.13a14.49 14.49 0 0 0 3 3.54c1.51-4.78 1.49-9-2.53-12.55 2.19 1.24 5.42 5.41 5.94 7.65.37-2.26 1-5.39.19-7.34a4.76 4.76 0 0 0 2.93 1.37z"/><path d="m56.3 63.55a1.46 1.46 0 0 0 -1.59 1.25 1.43 1.43 0 0 0 1.29 1.59 1.46 1.46 0 0 0 1.59-1.25 1.43 1.43 0 0 0 -1.29-1.59z"/><path d="m61.46 72c-.62 0-.67 1 0 1s.63-1 0-1z"/><path d="m61.28 76.86a.46.46 0 0 0 -.44-.49h-.35a.79.79 0 1 0 .8.77 2.44 2.44 0 0 0 -.01-.28z"/><path d="m68.17 80.41c-1.82 0-2.18 2.84-.34 2.84s2.17-2.84.34-2.84z"/><path d="m73.89 85.7c-2.66 0-2.58 4.13.07 4.13s2.59-4.13-.07-4.13z"/><path d="m81.24 90.84a.13.13 0 0 0 -.25 0c0 .09 0 .19-.08.28-.11.39.5.35.42 0z"/><path d="m80.8 92.17c-.06-.88-.13-1.77-.2-2.66a1.31 1.31 0 0 0 -.65.28s0 0 0 0-.15.09-.28.25a1.29 1.29 0 0 0 -.27 1 1.43 1.43 0 0 0 .47.85 1.1 1.1 0 0 0 .8.37.47.47 0 0 1 -.3-.1.83.83 0 0 0 .43.01z"/><path d="m86.1 91.71a.74.74 0 0 0 0 1.48.74.74 0 0 0 0-1.48z"/><path d="m91.35 89.24c-1.32 0-1.18 2.05.14 2.05s1.17-2.05-.14-2.05z"/><path d="m97.72 89.37c-2.35 0-2.48 3.66-.12 3.66s2.49-3.66.12-3.66z"/><path d="m103.42 84.56c-1.73 0-1.35 2.66.36 2.66s1.34-2.66-.36-2.66z"/><path d="m106.87 87.42c-1.66 0-1.33 2.56.32 2.56s1.33-2.56-.32-2.56z"/><path d="m112.34 81.71a2 2 0 1 0 2 2 2 2 0 0 0 -2-2z"/><path d="m117.67 71.65c-.65 0-.7 1 0 1s.65-1 0-1z"/><path d="m121.71 77.71a.69.69 0 0 0 0 1.38.69.69 0 0 0 0-1.38z"/><path d="m115.72 78.14s0 0 0-.07a1.3 1.3 0 0 0 -1.35-1.58 1.26 1.26 0 0 0 -.65 2.2 1.23 1.23 0 0 0 1.71-.16l.05-.05s0-.06 0-.09a.8.8 0 0 0 .24-.25z"/><path d="m115.49 65.29c-.39 0-.45.61 0 .61s.39-.61 0-.61z"/><path d="m121.07 68.57a.77.77 0 0 0 0 1.54.77.77 0 0 0 0-1.54z"/><path d="m125.13 70a2.56 2.56 0 0 0 -2.76-2.22 2.5 2.5 0 0 0 -2.21 2.76 2.55 2.55 0 0 0 2.76 2.21 2.5 2.5 0 0 0 2.21-2.75z"/><path d="m55.12 71.1c-1.37 0-1.2 2.11.15 2.11s1.2-2.11-.15-2.11z"/><path d="m55.23 69.21a2 2 0 1 0 2 2 2 2 0 0 0 -2-2z"/><path d="m62.08 63.18a.54.54 0 0 0 -.41.9l.11.09a.32.32 0 0 0 .54 0l.1-.1a.54.54 0 0 0 -.34-.89z"/><path d="m59 75.7a1.82 1.82 0 0 0 -1.5-.29c-1.64.14-1.55 2.72.06 2.86h.35a1.52 1.52 0 0 0 1.53-.92 0 0 0 0 1 0 0 1.45 1.45 0 0 0 -.44-1.65z"/><path d="m65.49 81.93c.07.24.07.28 0 .13s0 0 0-.06c-.21-1-1.67-.79-1.86.09a.75.75 0 0 1 0 .16c-.17.79.83 1.61 1.53 1l.37-.31a.75.75 0 0 0 -.04-1.01z"/><path d="m64.8 72.47a1.19 1.19 0 0 0 -.66-.33c-1.47-.35-1.55 2.26.1 1.87a1.07 1.07 0 0 0 .58-.33.87.87 0 0 0 -.02-1.21z"/><path d="m109.4 81.63a.54.54 0 0 1 -.05-.11.9.9 0 0 0 -1.53 0 .91.91 0 0 0 -.07.14 1 1 0 1 0 1.65-.07z"/><path d="m103.49 89.88c-.09-.64-1-.46-1 .1a2.26 2.26 0 0 0 0 .26.54.54 0 0 0 1.08 0 1.82 1.82 0 0 0 -.08-.36z"/><path d="m84.35 88.29c-2.13 0-2.37 3.32-.23 3.32s2.37-3.32.23-3.32z"/><path d="m80 89.26a1.66 1.66 0 0 0 -1.74 1.51 1.63 1.63 0 0 0 1.5 1.74 1.63 1.63 0 1 0 .24-3.25z"/><path d="m59.56 68.65c-.09 0-.08.14 0 .14s.09-.14 0-.14z"/><path d="m59.54 67.88c-1.08 0-1 1.68.05 1.68s1.03-1.68-.05-1.68z"/><path d="m113.3 70.34a.2.2 0 0 0 -.08 0c-1.9-.88-2.6 2.54-.71 2.55h.23a.33.33 0 0 1 .1 0h.1a1 1 0 0 0 1.06-1 1.26 1.26 0 0 0 -.7-1.55z"/><path d="m119.9 79.46c-.12-1.08-1.85-1.33-2-.15a.51.51 0 0 1 0 .13c-.18 1.54 2.2 1.57 2 .14.01-.04.01-.08 0-.12z"/><path d="m92.68 92.45c0-.14-.07-.18-.09-.16s0-.07 0-.1a.62.62 0 0 0 -1.13.11 2.5 2.5 0 0 0 -.07.26.68.68 0 1 0 1.33 0z"/><path d="m100.16 86.33a.87.87 0 0 0 -.35-.22.83.83 0 0 0 -1.2.52c-.14.55.43 1.25 1 1a1.52 1.52 0 0 0 .61-.36.6.6 0 0 0 -.06-.94z"/><path d="m63 56.93a1.34 1.34 0 0 0 -1.15 1.5 1.38 1.38 0 0 0 1.51 1.16 1.34 1.34 0 0 0 1.15-1.51 1.38 1.38 0 0 0 -1.51-1.15z"/><path d="m115.07 59.77a1.73 1.73 0 0 0 -1.8 1.59 1.7 1.7 0 1 0 1.8-1.59z"/><path d="m114.44 68.07a1.52 1.52 0 0 0 -.19.43 1 1 0 0 0 1.28 1.15 2.13 2.13 0 0 0 .45-.23c1.36-.87-.54-2.89-1.54-1.35z"/><path d="m118.93 66.67a.69.69 0 0 0 0 1.38.69.69 0 0 0 0-1.38z"/><path d="m110.48 77.86s0 0 0 0a.41.41 0 0 0 -.39-.37h-.08a.52.52 0 0 0 -.54.47.51.51 0 0 0 .48.52.33.33 0 0 0 .2 0c0 .06 0 0 .16-.09a.53.53 0 0 0 .17-.36.68.68 0 0 0 0-.17z"/><path d="m67.91 85.7h-.15a.89.89 0 0 0 -.5 1.32.92.92 0 0 0 .73.4c1.41.33 1.46-2-.08-1.72z"/><path d="m72.43 84.27c-.59 0-.64.91-.05.91s.62-.91.05-.91z"/><path d="m64.49 77.37.06.14a.11.11 0 0 0 .19 0l.06-.14c.13-.29-.44-.29-.31 0z"/><path d="m64.8 76.52a.81.81 0 0 0 0 1.62.81.81 0 0 0 0-1.62z"/><path d="m60.28 80.63c-.71 0-.75 1.11 0 1.11s.72-1.11 0-1.11z"/><path d="m60.32 60.18h-.07c-.83-.25-.79 1.16 0 .93h.07a.46.46 0 0 0 0-.93z"/><path d="m63.42 68h-.09c-1.33-.15-1.36 1.86-.17 1.72h.08c.9-.08 1.21-1.57.18-1.72z"/><path d="m117.7 73.64c-1.26 0-1.15 1.94.1 1.94s1.2-1.94-.1-1.94z"/><path d="m115.7 81.94c-1.2 0-1.11 1.86.09 1.86s1.11-1.86-.09-1.86z"/><path d="m20 137-.3-.09a.7.7 0 0 0 -.8 1 1 1 0 0 0 .91.48.48.48 0 0 0 .52-.48v-.06a.57.57 0 0 0 -.33-.85z"/><path d="m17.55 141a.81.81 0 0 0 0 1.61.81.81 0 0 0 0-1.61z"/><path d="m17.85 137a1 1 0 0 0 -.6 1.63l.07.06a.83.83 0 0 0 1.16 0 .43.43 0 0 0 .1-.09 1 1 0 0 0 -.73-1.6z"/><path d="m13.39 144 .14.2a.27.27 0 0 0 .42 0l.16-.23c.58-.85-1.37-.97-.72.03z"/><path d="m13.26 149.24-.31-.06c-1-.22-1 1.41 0 1.2l.3-.07c.48-.11.56-.95.01-1.07z"/><path d="m17 143.79a1.83 1.83 0 1 0 1.77 1.88 1.84 1.84 0 0 0 -1.77-1.88z"/><path d="m12.37 149.7c-1.39 0-1.22 2.16.17 2.16s1.22-2.16-.17-2.16z"/><path d="m12.76 157a.81.81 0 0 0 0 1.61.81.81 0 0 0 0-1.61z"/><path d="m159.82 133.21v.32c.07 1.32 1.95 1.13 2-.13v-.32c.11-1.29-2.07-1.21-2 .13z"/><path d="m162.59 136.57a2.34 2.34 0 0 0 -2.15 2.5 2.37 2.37 0 0 0 2.49 2.16 2.35 2.35 0 0 0 2.16-2.5 2.38 2.38 0 0 0 -2.5-2.16z"/><path d="m171.89 144.22a1.44 1.44 0 0 0 -1.57 1.22 1.4 1.4 0 0 0 1.23 1.57 1.44 1.44 0 0 0 1.57-1.23 1.41 1.41 0 0 0 -1.23-1.56z"/><path d="m163.19 143.86a1.35 1.35 0 0 0 -1 0 .87.87 0 0 0 0 1.66h.13a.81.81 0 0 0 1.1-.28l.08-.13a.91.91 0 0 0 -.31-1.25z"/><path d="m167.9 148.58c-.71 0-.75 1.11 0 1.11s.71-1.11 0-1.11z"/><path d="m173.64 150.67h-.32c-.34 0-.74.3-.7.69a.82.82 0 0 0 1.2.7c.71-.22.64-1.43-.18-1.39z"/><path d="m170.75 155.73c.23-1.49-2.13-1.47-1.92-.15a.88.88 0 0 0 0 .16c.14.9 1.44 1.22 1.79.39a.92.92 0 0 0 .09-.23z"/><path d="m166.94 136.05a1.29 1.29 0 0 0 -1.12 1.44 1.32 1.32 0 0 0 1.44 1.12 1.29 1.29 0 0 0 1.12-1.44 1.32 1.32 0 0 0 -1.44-1.12z"/><path d="m168.44 138.53a.84.84 0 0 0 0 1.68.84.84 0 0 0 0-1.68z"/><path d="m168 140.87c-1.38 0-1.21 2.14.17 2.14s1.17-2.14-.17-2.14z"/></g></svg>